<svg xmlns="http://www.w3.org/2000/svg" xmlns:xlink="http://www.w3.org/1999/xlink" width="375" height="156" viewBox="0 0 375 156">
    <defs>
        <path id="8i1es69tba" d="M0 0H375V174H0z"/>
    </defs>
    <g fill="none" fill-rule="evenodd">
        <g>
            <g>
                <g transform="translate(0 -18)">
                    <mask id="c33ol6swvb" fill="#fff">
                        <use xlink:href="#8i1es69tba"/>
                    </mask>
                    <g mask="url(#c33ol6swvb)">
                        <g>
                            <path fill="#E6E2FA" d="M6.684 136.01s178.312-39.574 266.587-21.03c88.276 18.545 112.766-47.623 179.983-40.127 44.81 4.998 78.755 15.586 101.834 31.763l-1.203 79.989H0" transform="translate(-56.827 18.907) matrix(-1 0 0 1 555.088 0)"/>
                            <path fill="#E5E1F6" d="M61.66 0c18.88 0 62.342 6.872 101.478 23.562 39.136 16.69 45.232 36.128 134.516 45.553C357.177 75.398 403 97.389 435.121 135.088v49.873H57.53V0h4.13z" opacity=".5" transform="translate(-56.827 18.907)"/>
                            <path fill="#E7E1FF" d="M431.003 39.193C393.052 25.799 353.12 20.585 311.21 23.549c-62.866 4.446-81.512 26.841-139.263 35.569-38.501 5.818-77.332-2.415-116.493-24.7V226.61c194.946 9.38 320.129 9.38 375.549 0" opacity=".5" transform="translate(-56.827 18.907)"/>
                            <path fill="#E4DEFF" d="M437.592 48.577v137.754H53.632c-.133-49.246-.133-73.868 0-73.868.2 0 104.99-1.997 213.778-35.936 72.525-22.626 129.253-31.943 170.182-27.95z" opacity=".742" transform="translate(-56.827 18.907)"/>
                            <path fill="#DCD4FF" d="M261.347 163.587c64.117 23.935 98.554-20.825 124.634-32.06 17.386-7.49 33.034-8.129 46.944-1.918v53.16H55.454v-61.106c34.137.965 58.387 2.61 72.749 4.932 59.153 9.567 101.81 25.296 133.144 36.992z" transform="translate(-56.827 18.907)"/>
                            <path fill="#D8D1F8" d="M57.287 175.47s122.137-39.575 182.603-21.03c60.466 18.544 77.24-47.625 123.282-40.128 30.694 4.997 53.945 15.585 69.753 31.762v36.695H53.532" opacity=".455" transform="translate(-56.827 18.907)"/>
                            <path fill="#DBD5FA" d="M18.668 181.206V17.263c23.621 44.67 65.763 67.004 126.424 67.004 90.992 0 68.436-20.884 149.342 20.015s83.052 54.125 115.886 68.222c32.835 14.097 25.324 8.702 20.388 8.702" opacity=".5" transform="translate(-56.827 18.907) matrix(-1 0 0 1 453.788 0)"/>
                        </g>
                    </g>
                </g>
            </g>
        </g>
    </g>
</svg>
