<svg xmlns="http://www.w3.org/2000/svg" width="180" height="38" viewBox="0 0 180 38">
    <g fill="none" fill-rule="evenodd">
        <g fill="#C5E86C">
            <g>
                <g>
                    <path d="M132.915.477c11.392-.572 29.123-1.417 30.186 2.811 1.063 4.229-7.646 5.689-7.646 7.838 0 1.009 10.671.288 9.686 2.147-.986 1.858-11.719 3.034-14.217 6.397-1.507 2.029 60.073-9.73 8.357 6.531-44.003 13.836-108.21 14.172-137.69 7.829-5.166-1.112 16.464-5.767 14.253-6.937-4.28-2.266-27.306-6.266-19.135-9.19C19.371 16.952-3.28 13.33.407 12.366 24.597 6.036 88.355 2.715 132.915.477z" transform="translate(-593 -1340) translate(593 1340)"/>
                </g>
            </g>
        </g>
    </g>
</svg>
