<svg xmlns="http://www.w3.org/2000/svg" width="40" height="40" viewBox="0 0 40 40">
    <g fill="none" fill-rule="evenodd">
        <g>
            <g>
                <g transform="translate(-731 -386) translate(527 386) translate(204)">
                    <rect width="40" height="40" fill="#9D91CF" rx="20"/>
                    <g fill-rule="nonzero" transform="translate(13 13)">
                        <path fill="#FFF" d="M10.313 0H4.686C2.1 0 0 2.1 0 4.688v5.625C0 12.9 2.1 15 4.688 15h5.625C12.9 15 15 12.9 15 10.312V4.689C15 2.099 12.9 0 10.312 0zm3.28 10.313c0 1.809-1.471 3.28-3.28 3.28H4.686c-1.809 0-3.28-1.471-3.28-3.28V4.686c0-1.809 1.471-3.28 3.28-3.28h5.625c1.81 0 3.282 1.471 3.282 3.28v5.625z"/>
                        <path fill="#FFF" d="M7.5 3.75c-2.07 0-3.75 1.68-3.75 3.75 0 2.07 1.68 3.75 3.75 3.75 2.07 0 3.75-1.68 3.75-3.75 0-2.07-1.68-3.75-3.75-3.75zm0 6.094c-1.292 0-2.344-1.052-2.344-2.344 0-1.293 1.052-2.344 2.344-2.344 1.292 0 2.344 1.051 2.344 2.344 0 1.292-1.052 2.344-2.344 2.344z"/>
                        <circle cx="11.625" cy="3.375" r="1" fill="#F6F4FF"/>
                    </g>
                </g>
            </g>
        </g>
    </g>
</svg>
