<svg xmlns="http://www.w3.org/2000/svg" width="50" height="50" viewBox="0 0 50 50">
    <g fill="none" fill-rule="evenodd">
        <g>
            <g fill="#C5E86C">
                <circle cx="25" cy="25" r="25"/>
            </g>
            <g fill="#FFF" fill-rule="nonzero">
                <g>
                    <g>
                        <path d="M24.375 0H1.625C.728 0 0 .7 0 1.563v.889l13 5.293L26 2.45v-.888C26 .7 25.272 0 24.375 0z" transform="translate(12 13) translate(0 3.875)"/>
                        <path d="M13.317 9.313c-.1.042-.21.062-.317.062-.107 0-.216-.02-.317-.063L0 4.149v11.477c0 .863.728 1.563 1.625 1.563h22.75c.897 0 1.625-.7 1.625-1.563V4.148L13.317 9.313z" transform="translate(12 13) translate(0 3.875)"/>
                    </g>
                </g>
            </g>
        </g>
    </g>
</svg>
