<svg xmlns="http://www.w3.org/2000/svg" width="20" height="20" viewBox="0 0 20 20">
    <g fill="none" fill-rule="evenodd">
        <g fill="#000" fill-rule="nonzero">
            <path d="M11.228 20H2.08C.932 20 0 19.065 0 17.917V2.083C0 .935.932 0 2.08 0h9.148c1.147 0 2.08.935 2.08 2.083V3.75c0 .23-.187.417-.417.417-.23 0-.415-.187-.415-.417V2.083c0-.689-.56-1.25-1.248-1.25H2.08c-.688 0-1.247.561-1.247 1.25v15.834c0 .689.56 1.25 1.247 1.25h9.15c.687 0 1.247-.561 1.247-1.25V16.25c0-.23.186-.417.415-.417.23 0 .416.187.416.417v1.667c0 1.148-.932 2.083-2.079 2.083z"/>
            <path d="M8.317 2.5H4.99c-.688 0-1.247-.56-1.247-1.25 0-.23-.187-.417-.416-.417h-.832c-.23 0-.416-.186-.416-.416 0-.23.187-.417.416-.417h.832c.688 0 1.247.56 1.247 1.25 0 .23.188.417.416.417h3.327c.229 0 .416-.187.416-.417C8.733.56 9.293 0 9.98 0h.831c.23 0 .416.187.416.417 0 .23-.186.416-.416.416h-.831c-.23 0-.416.187-.416.417 0 .69-.56 1.25-1.248 1.25zM18.713 14.167H9.565c-.688 0-1.248-.561-1.248-1.25V7.083c0-.689.56-1.25 1.248-1.25h9.148c.688 0 1.248.561 1.248 1.25v5.834c0 .689-.56 1.25-1.248 1.25zm-9.148-7.5c-.23 0-.416.186-.416.416v5.834c0 .23.187.416.416.416h9.148c.23 0 .416-.186.416-.416V7.083c0-.23-.187-.416-.416-.416H9.565z"/>
            <path d="M14.14 10.963c-.265 0-.53-.063-.771-.189L8.54 8.25c-.204-.107-.283-.358-.177-.563.107-.204.36-.282.562-.176l4.829 2.524c.24.126.53.126.77 0l4.829-2.524c.204-.106.455-.028.561.176.107.205.028.456-.176.563l-4.829 2.524c-.242.126-.507.19-.77.19z"/>
        </g>
    </g>
</svg>
