<svg xmlns="http://www.w3.org/2000/svg" width="40" height="40" viewBox="0 0 40 40">
    <g fill="none" fill-rule="evenodd">
        <g>
            <g>
                <g transform="translate(-663 -386) translate(527 386) translate(136)">
                    <rect width="40" height="40" fill="#9D91CF" rx="20"/>
                    <g fill="#FFF" fill-rule="nonzero">
                        <path d="M16.79 1.866c-.198-.73-.777-1.305-1.511-1.501C13.937 0 8.57 0 8.57 0S3.205 0 1.864.35C1.144.548.55 1.137.353 1.867 0 3.2 0 5.963 0 5.963s0 2.778.353 4.096c.198.73.777 1.305 1.511 1.502 1.356.364 6.707.364 6.707.364s5.366 0 6.708-.35c.734-.197 1.313-.772 1.51-1.502.354-1.332.354-4.096.354-4.096s.014-2.778-.353-4.11zm-9.927 6.65V3.41l4.462 2.554-4.462 2.553z" transform="translate(11 14)"/>
                    </g>
                </g>
            </g>
        </g>
    </g>
</svg>
