<svg xmlns="http://www.w3.org/2000/svg" width="40" height="40" viewBox="0 0 40 40">
    <g fill="none" fill-rule="evenodd">
        <g>
            <g>
                <g transform="translate(-595 -386) translate(527 386) translate(68)">
                    <rect width="40" height="40" fill="#9D91CF" rx="20"/>
                    <g fill="#FFF" fill-rule="nonzero">
                        <path d="M4.34 11.752c5.208 0 8.056-4.385 8.056-8.188 0-.125-.003-.249-.008-.372.552-.407 1.033-.913 1.412-1.49-.507.229-1.053.383-1.626.453.585-.357 1.033-.92 1.245-1.592-.547.33-1.153.569-1.798.698-.516-.56-1.252-.909-2.067-.909-1.563 0-2.831 1.289-2.831 2.878 0 .226.025.445.073.656C4.443 3.766 2.356 2.62.96.879c-.243.425-.383.92-.383 1.447 0 .998.5 1.88 1.26 2.395-.465-.015-.9-.144-1.282-.36v.037c0 1.394.975 2.557 2.27 2.821-.237.066-.488.101-.746.101-.182 0-.36-.018-.532-.052.36 1.144 1.406 1.976 2.645 2-.97.771-2.19 1.231-3.517 1.231-.228 0-.453-.013-.675-.04 1.253.817 2.741 1.293 4.34 1.293" transform="translate(13 14)"/>
                    </g>
                </g>
            </g>
        </g>
    </g>
</svg>
