<svg width="100" height="100" xmlns="http://www.w3.org/2000/svg">
 <g id="Layer_1">
  <title>Layer 1</title>
  <g stroke="null" id="svg_8">
   <g stroke="null" id="svg_4" fill-rule="evenodd" fill="none">
    <g stroke="null" id="svg_5">
     <path stroke="null" id="svg_6" d="m-38,-39l178.00001,0l0,178l-178.00001,0l0,-178z" fill="#FFF"/>
     <path stroke="null" id="svg_7" d="m83.90567,62.7602c0.61292,-0.61066 0.92268,-1.33413 0.92268,-2.20014l0,-18.0816c0,-0.85297 -0.30976,-1.57627 -0.92268,-2.19684c-0.61622,-0.60075 -1.36577,-0.89261 -2.24847,-0.89261l-40.46545,0c-0.8794,0 -1.63225,-0.30542 -2.24516,-0.90269c-0.62283,-0.59727 -0.91938,-1.31066 -0.91938,-2.16016l0,-5.3659c0,-0.8528 0.29655,-3.77624 0.91955,-4.37699c0.61274,-0.58406 1.36559,-0.88583 2.24499,-0.88583l45.74513,0c0.8794,0 1.62877,-0.30872 2.24516,-0.90599c0.61952,-0.61048 0.92929,-1.34717 0.92929,-2.21335l0,-17.78644c0,-0.86601 -0.30976,-1.60617 -0.92929,-2.19997c-0.61639,-0.61396 -1.36577,-0.9159 -2.24516,-0.9159l-71.90366,0c-0.86949,0 -1.61226,0.30194 -2.22187,0.90252c-0.61952,0.60736 -0.92268,1.33413 -0.92268,2.19684l0,90.52812c0,0.85941 0.30316,1.58618 0.92268,2.19684c0.60962,0.59727 1.35238,0.90252 2.22187,0.90252l19.83292,0c0.8794,0 1.62547,-0.30524 2.23838,-0.90252c0.61639,-0.61066 0.92268,-1.33743 0.92268,-2.19684l0,-28.54779c0,-0.8528 0.29655,-1.58948 0.91955,-2.19023c0.61274,-0.59727 1.36559,-0.90252 2.24499,-0.90252l40.46545,0c0.8827,0 1.63225,-0.30524 2.24847,-0.90252" fill="#000"/>
    </g>
   </g>
  </g>
 </g>

</svg>