<svg xmlns="http://www.w3.org/2000/svg" width="400" height="146" viewBox="0 0 400 146">
    <g fill="none" fill-rule="evenodd">
        <g fill="#000">
            <g>
                <g>
                    <path d="M28.952 123.461c-.828 0-1.426.375-2.118.808-.93.583-1.985 1.247-3.882 1.247-4.71 0-5.085-4.034-5.085-9.306V96.575h8.254c1.889 0 2.804-.958 2.804-2.925 0-2.055-.891-3.015-2.804-3.015h-8.254V81.49c0-2.635-.888-3.763-2.972-3.763-2.726 0-3.575 1.915-4.01 3.586-1.552 5.452-3.634 7.01-7.686 9.041-.211.104-.429.21-.65.311C1.24 91.275 0 91.851 0 93.73c0 2.35 1.526 2.845 2.804 2.845H5.49v19.635c0 4.537 1.45 15.085 14.891 15.085 5.523 0 11.115-1.735 11.115-5.059 0-1.555-1.118-2.775-2.544-2.775M77.927 123.668c-1.865-1.137-2.131-1.917-2.131-4.203V98.617c0-7.72-6.277-11.179-12.5-11.179-5.209 0-10.063 2.261-12.985 6.054l-.525.681V72.786c0-1.556-.858-2.412-2.407-2.412-1.239 0-2.928.519-5.072 1.176-.628.193-1.288.395-1.98.6-3.288.959-5.364 1.314-6.74 1.55-.366.057-.675.111-.93.16-1.509.352-2.21 1.12-2.21 2.408 0 2.102 1.867 2.665 3.231 3.078.292.088.552.17.742.245 2.515.747 2.81 2.457 2.81 3.675v36.2c0 2.357-.203 3.077-2.046 4.202l-.196.112c-1.635.907-2.714 1.51-2.714 3.08 0 1.55 1.015 2.334 3.014 2.334.475 0 1.386-.042 2.493-.09 1.742-.076 3.965-.169 5.768-.169 1.806 0 4.035.093 5.774.169 1.107.051 2.015.09 2.487.09 2.625 0 3.017-1.459 3.017-2.333 0-1.574-1.082-2.177-2.907-3.193-1.87-1.14-2.134-1.92-2.134-4.203V106.02c0-6.479 2.864-10.193 7.862-10.193 3.763 0 5.59 2.27 5.59 6.94v16.7c0 2.357-.199 3.077-2.232 4.308-1.64.91-2.726 1.513-2.726 3.087 0 1.55 1.018 2.333 3.02 2.333.47 0 1.377-.039 2.484-.09 1.742-.076 3.971-.169 5.775-.169 1.809 0 4.035.093 5.777.169 1.11.048 2.017.09 2.493.09 2.618 0 3.01-1.459 3.01-2.333 0-1.574-1.082-2.177-2.912-3.193M102.344 87.18c-12.806 0-20.454 7.809-20.454 20.898 0 13.167 7.873 22.167 20.542 22.167 13.494 0 16.838-9.381 16.838-10.72 0-.595-.3-1.112-.908-1.568-.746-.493-1.501-.547-1.79-.547-.12 0-.227.009-.318.021-.537.088-1.22.647-2.054 1.683-1.908 2.436-4.493 4.92-9.186 4.92-2.67 0-4.855-.795-6.487-2.354-2.25-2.158-3.41-6.582-3.352-11.24-.073-2.036.03-4.989.079-6.158h-.006l.015-.284c0-.024.003-.046.006-.07l.006-.172c-.01-.003.015-.015.012-.018.446-7.347 2.913-11.4 6.972-11.4 1.283 0 2.351.418 3.173 1.24 2.233 2.236 2.224 7.032 2.024 10.45l-.015.254h-7.03c-.221.015-.606.057-.995.181-1.104.4-3.052 1.668-3.03 5.706h20.244c3.337 0 4.105-.858 4.105-4.612 0-5.527-1.79-18.377-18.391-18.377M226.326 123.461c-.825 0-1.42.375-2.113.808-.927.583-1.982 1.247-3.884 1.247-4.709 0-5.087-4.863-5.087-10.136V96.575h8.252c1.89 0 2.808-.958 2.808-2.925 0-2.055-.892-3.015-2.808-3.015h-8.252V81.49c0-2.672-.861-3.763-2.974-3.763-2.726 0-3.576 1.915-4.011 3.586-1.554 5.452-3.636 7.01-7.69 9.041-.211.107-.429.21-.65.311-1.305.613-2.542 1.19-2.542 3.065 0 1.86.968 2.845 2.8 2.845h2.69v18.805c0 4.535 1.45 15.915 14.89 15.915 5.521 0 11.116-1.735 11.116-5.059 0-1.555-1.118-2.775-2.545-2.775M276.543 123.782l-.197-.111c-1.864-1.14-2.13-1.918-2.13-4.203v-20.85c0-7.72-6.276-11.179-12.497-11.179-5.206 0-10.059 2.261-12.984 6.054l-.527.682V72.783c0-1.993-1.31-2.409-2.404-2.409-1.235 0-2.928.519-5.074 1.179-.628.196-1.281.392-1.971.597-3.287.956-5.365 1.311-6.739 1.547-.37.06-.68.114-.938.162-1.505.36-2.21 1.119-2.21 2.41 0 2.098 1.87 2.665 3.234 3.078.291.087.555.169.739.244 2.52.748 2.811 2.457 2.811 3.675v36.202c0 2.358-.2 3.078-2.229 4.305-1.643.908-2.722 1.514-2.722 3.09 0 1.55 1.012 2.331 3.01 2.331.473 0 1.383-.039 2.493-.087 1.741-.076 3.961-.169 5.764-.169 1.812 0 4.044.093 5.785.169 1.107.051 2.008.087 2.474.087 2.628 0 3.02-1.456 3.02-2.33 0-1.574-1.082-2.177-2.915-3.193-1.861-1.143-2.128-1.92-2.128-4.203V106.02c0-6.48 2.863-10.194 7.858-10.194 3.768 0 5.595 2.27 5.595 6.94v16.7c0 2.356-.2 3.076-2.045 4.204l-.193.108c-1.637.91-2.72 1.514-2.72 3.085 0 1.55 1.015 2.33 3.017 2.33.472 0 1.377-.036 2.487-.087 1.738-.076 3.967-.169 5.773-.169 1.805 0 4.028.093 5.77.169 1.11.048 2.023.087 2.495.087 2.628 0 3.02-1.456 3.02-2.33 0-1.571-1.082-2.174-2.722-3.082M300.452 123.634c-1.82-1.129-2.018-1.854-2.018-4.229V89.604c0-1.517-.922-2.424-2.464-2.424-1.086 0-2.746.53-4.663 1.15-.72.227-1.488.473-2.292.715-2.689.765-5.093 1.238-6.68 1.554l-.808.16c-1.479.298-2.262 1.168-2.262 2.51 0 2.098 2.099 2.68 3.49 3.063l.435.118c2.565.84 2.858 2.56 2.858 3.78v19.175c0 2.37-.197 3.094-2.032 4.238-1.784.968-2.86 1.55-2.86 3.203 0 1.56.997 2.348 2.969 2.348.465 0 1.367-.042 2.461-.09 1.718-.077 3.91-.17 5.692-.17 1.778 0 3.943.093 5.64.17 1.079.048 1.962.09 2.43.09 2.668 0 3.064-1.468 3.064-2.348 0-1.607-1.13-2.22-2.96-3.212M351.86 123.634c-1.843-1.129-2.042-1.854-2.042-4.229V98.428c0-7.769-6.31-11.248-12.563-11.248-5.157 0-10.087 2.33-12.876 6.088l-.526.71v-4.374c0-1.517-.933-2.424-2.491-2.424-1.102 0-2.785.53-4.732 1.153-.725.227-1.493.473-2.304.712-3.725 1.053-5.347 1.314-6.421 1.496-.432.07-.78.127-1.15.218-1.543.358-2.293 1.16-2.293 2.442 0 2.172 1.925 2.691 3.333 3.067.235.067.453.128.63.182 2.556.825 2.883 2.454 2.883 3.78v19.175c0 2.372-.196 3.097-2.041 4.238-1.809.968-2.901 1.55-2.901 3.203 0 1.56 1.013 2.348 3.005 2.348.48 0 1.396-.042 2.51-.09 1.738-.077 3.954-.17 5.75-.17 1.803 0 3.994.093 5.702.17 1.092.048 1.986.09 2.457.09 2.556 0 3.091-1.277 3.091-2.348 0-1.617-1.15-2.232-2.984-3.212-1.842-1.129-2.044-1.854-2.044-4.229v-13.53c0-6.519 2.828-10.256 7.755-10.256 3.82 0 5.677 2.284 5.677 6.983v16.803c0 2.37-.202 3.094-2.06 4.238-1.808.968-2.897 1.55-2.897 3.203 0 1.56 1.013 2.348 3.017 2.348.471 0 1.35-.04 2.436-.088 1.72-.073 3.945-.173 5.818-.173 1.8 0 3.985.094 5.696.17 1.09.049 1.986.091 2.457.091 2.7 0 3.104-1.468 3.104-2.348 0-1.601-1.142-2.211-2.997-3.212M376.4 92.512c3.854 0 5.979 3.2 5.979 9.008 0 6.775-3.299 8.195-6.065 8.195-4.024 0-6.064-2.757-6.064-8.195 0-5.723 2.24-9.008 6.15-9.008m10.353 28.37h-14.068c-2.514 0-5.198-.204-5.198-2.633 0-2.96 3.657-4.164 6.848-4.164.678 0 1.42.018 2.177.036.775.022 1.562.043 2.307.043 6.204 0 16.612-1.571 16.612-12.068 0-5.66-3.137-8.662-6.626-11.128-1.675-1.11-2.779-1.84-2.779-3.5 0-1.304.858-2.153 2.186-2.153.927 0 1.605.403 2.316.831.863.516 1.754 1.05 3.292 1.05 3.432 0 5.229-2.66 5.229-5.293 0-3.636-3.128-7.327-9.104-7.327-6.439 0-9.81 4.388-9.81 8.722 0 2.053.663 3.27 1.59 4.744l.113.17-.165.288h-.173l-.158-.037-.064-.036c-1.23-.652-3.423-1.013-6.173-1.013-11.874 0-18.084 6.77-18.084 13.45 0 5.296 3.73 10.34 8.867 11.996l-.064.53c-6.304.62-8.545 5.408-8.545 8.61 0 2.812 1.584 5.375 4.128 6.904.39.218 1.095.57 2.067.964l.484.182-.006.003c1.72.65 4.097 1.316 7.025 1.483h14.308c3.486 0 5.112 1.098 5.112 3.46 0 2.657-1.753 5.502-6.669 5.502h-12.502c-4.535 0-6.147-2.747-6.147-5.095 0-1.237.441-2.332 1.235-3.136-.624-.315-2.675-1.246-5.004-1.098-.194.015-.401.043-.623.085-.01.003-.021.003-.03.006-1.022.2-2.256.704-3.174 1.862-1.06 1.356-1.577 3-1.577 4.57 0 3.838 3.106 8.308 11.87 8.308h15.952C394.97 146 400 139.407 400 132.874c0-5.778-4.146-11.992-13.247-11.992M202.21 55.719c.56-.557.842-1.217.842-2.007V37.218c0-.778-.282-1.437-.842-2.003-.562-.548-1.246-.815-2.052-.815h-36.931c-.803 0-1.49-.278-2.05-.823-.568-.545-.838-1.196-.838-1.97v-4.895c0-.778.27-3.444.839-3.992.56-.533 1.246-.808 2.049-.808h41.75c.802 0 1.486-.282 2.049-.827.565-.557.848-1.229.848-2.019V2.842c0-.79-.283-1.465-.848-2.007-.563-.56-1.247-.835-2.05-.835h-65.623c-.794 0-1.472.275-2.028.823-.565.554-.842 1.217-.842 2.004v82.576c0 .784.277 1.447.842 2.004.556.545 1.234.823 2.028.823h18.1c.803 0 1.484-.278 2.044-.823.562-.557.842-1.22.842-2.004v-26.04c0-.778.27-1.45.839-1.998.56-.545 1.246-.823 2.049-.823h36.931c.806 0 1.49-.279 2.052-.823"/>
                </g>
            </g>
        </g>
    </g>
</svg>
